<svg width="50" height="37" viewBox="0 0 50 37" fill="none" xmlns="http://www.w3.org/2000/svg">
<path id="Vector" d="M15.0031 29.0714H30.0017C34.142 29.0714 37.5011 25.5201 37.5011 21.1429H40.0009C45.516 21.1429 50 16.4022 50 10.5714C50 4.74062 45.516 0 40.0009 0H9.37855C8.33958 0 7.50371 0.883705 7.50371 1.98214V21.1429C7.50371 25.5201 10.8628 29.0714 15.0031 29.0714ZM40.0009 5.28571C42.7584 5.28571 45.0004 7.65603 45.0004 10.5714C45.0004 13.4868 42.7584 15.8571 40.0009 15.8571H37.5011V5.28571H40.0009ZM43.7271 37H3.77748C0.0590508 37 -0.987733 31.7143 0.965222 31.7143H46.5316C48.4845 31.7143 47.4533 37 43.7271 37Z" fill="#4E4A43"/>
</svg>
